<svg xmlns="http://www.w3.org/2000/svg" fill="none" viewBox="0 0 31 40">
<style>
  .scaleMe {
    transform: scale(1);
    transform-origin: center;
    animation: 6s ease-in-out infinite alternate scale;
  }
      @keyframes scale {
      from {
        transform: scale(.5);
      }
      to {
        transform: scale(1);
      }
    }
</style>
        <path class="scaleMe" fill="pink" d="m15.5 39.193.416.277a.5.5 0 0 1-.832 0l.416-.277Zm14.45-21.676-.416-.278a.493.493 0 0 1 .044-.056l.372.334Zm.228-.255.483-.128a.5.5 0 0 1-.111.463l-.372-.335Zm-.017-.062-.483.129a.5.5 0 0 1 .073-.415l.41.286Zm.016-.023v-.5a.5.5 0 0 1 .41.786l-.41-.286Zm-.022 0v.5a.5.5 0 0 1-.484-.375l.484-.125ZM27.271 5.935l.197-.46a.5.5 0 0 1 .287.335l-.484.125ZM15.5.895l-.197-.46a.5.5 0 0 1 .394 0l-.197.46ZM3.729 5.934l-.485-.125a.5.5 0 0 1 .288-.335l.197.46ZM.843 17.177l.485.125a.5.5 0 0 1-.485.375v-.5Zm-.02 0-.42.27a.5.5 0 0 1 .42-.77v.5Zm.014.023.421-.27a.5.5 0 0 1 .065.39l-.486-.12Zm-.015.063-.373.333a.5.5 0 0 1-.113-.454l.486.12Zm.227.254.373-.334c.016.018.03.037.043.056l-.416.278Zm9.058-3.219c0-3.018 2.406-5.478 5.393-5.478v1c-2.418 0-4.393 1.996-4.393 4.478h-1ZM15.5 8.82c2.986 0 5.392 2.46 5.392 5.478h-1c0-2.482-1.975-4.478-4.392-4.478v-1Zm5.392 5.478c0 3.017-2.406 5.48-5.392 5.48v-1c2.417 0 4.392-1.998 4.392-4.48h1Zm-5.392 5.48c-2.987 0-5.393-2.463-5.393-5.48h1c0 2.481 1.975 4.48 4.393 4.48v1Zm-.416 19.137 14.45-21.676.832.555-14.45 21.676-.832-.555Zm14.494-21.732.228-.255.744.669-.229.254-.743-.668Zm.117.208-.017-.062.966-.258.017.063-.966.257Zm.056-.477.015-.022.821.571-.015.022-.821-.57Zm.426.763h-.022v-1h.022v1Zm-.506-.375L26.787 6.059l.968-.249 2.885 11.243-.97.249ZM27.074 6.394l-11.77-5.04.393-.92 11.77 5.041-.393.92Zm-11.377-5.04L3.925 6.394l-.393-.919L15.303.435l.394.919ZM4.213 6.059 1.328 17.302l-.969-.249L3.244 5.81l.969.249ZM.843 17.677h-.02v-1h.02v1Zm.4-.77.015.023-.841.54-.015-.022.842-.54Zm.08.413-.016.063-.97-.24.015-.064.97.241Zm-.128-.39.227.253-.746.667-.227-.254.746-.667Zm.27.31 14.45 21.675-.831.555L.633 17.794l.832-.555Z" />
      </svg>